<svg width="75" height="75" viewBox="0 0 75 75" fill="none" xmlns="http://www.w3.org/2000/svg">
<path d="M19.7917 53.4537C21.0117 52.2338 21.6959 50.577 21.6959 48.8543V22.589C21.6959 22.0986 22.0957 21.6988 22.5861 21.6988H48.857C50.5798 21.6988 52.2325 21.0147 53.4525 19.7948L72.5065 0.74184C72.7826 0.465711 72.5848 0 72.1973 0H22.5037C10.0772 0 0 10.0767 0 22.5025V72.2016C0 72.5849 0.465736 72.7786 0.737759 72.5066L19.7917 53.4537V53.4537Z" fill="#0AAFFE"/>
<path d="M55.2083 21.534C53.9883 22.7539 53.3041 24.4065 53.3041 26.1293V52.4275C53.3041 52.9097 52.9167 53.3012 52.4345 53.3012C47.7895 53.3012 26.1307 53.3012 26.1307 53.3012C24.4037 53.3012 22.751 53.9853 21.531 55.2053L2.47706 74.2623C2.20503 74.5343 2.39875 75 2.78205 75H46.5324C46.7343 75 46.9281 74.9217 47.0723 74.7775L52.0017 69.8483C52.4839 69.3662 53.3041 69.7082 53.3041 70.3882V74.2376C53.3041 74.6579 53.6462 75 54.0666 75H74.2375C74.6579 75 75 74.6579 75 74.2376V2.76955C75 2.39038 74.5384 2.19668 74.2705 2.46869L55.2042 21.534H55.2083Z" fill="#4A62FF"/>
</svg>
