<svg xmlns="http://www.w3.org/2000/svg" xmlns:xlink="http://www.w3.org/1999/xlink" style="margin:auto; opacity:30%;display:block;z-index:1;position:relative" width="1366" height="668" preserveAspectRatio="xMidYMid" viewBox="0 0 1366 668">
<g transform="translate(683,334) scale(1,1) translate(-683,-334)"><path id="path0" d="M 559.0353568774736 388.04404584992056
c 0 27.079379381385046 -6.625805593317617 7.778119609546768 -14.403925202864386 7.778119609546768
S 530.227506471745 415.1234252313056 530.227506471745 388.04404584992056
s 6.625805593317617 -7.778119609546768 14.403925202864386 -7.778119609546768
S 559.0353568774736 360.96466646853554 559.0353568774736 388.04404584992056
z" fill="none" stroke="none"></path>
<circle cx="0" cy="0" r="5.208263276690112" fill="#149786" opacity="0.9">
  <animateMotion begin="-1.8533633633137825s" dur="10s" repeatCount="indefinite">
    <mpath xlink:href="#path0"></mpath>
  </animateMotion>
</circle><path id="path1" d="M 506.90235793768096 337.357305892172
c 0 27.506583126490977 -6.730334169247792 7.900827068247409 -14.631161237495201 7.900827068247409
S 477.6400354626906 364.863889018663 477.6400354626906 337.357305892172
s 6.730334169247792 -7.900827068247409 14.631161237495201 -7.900827068247409
S 506.90235793768096 309.85072276568104 506.90235793768096 337.357305892172
z" fill="none" stroke="none"></path>
<circle cx="0" cy="0" r="6.36413550420279" fill="#228d80" opacity="0.9">
  <animateMotion begin="-4.720401328293051s" dur="10s" repeatCount="indefinite">
    <mpath xlink:href="#path1"></mpath>
  </animateMotion>
</circle><path id="path2" d="M 434.67744891457835 346.80792225789367
c 0 19.575566186304584 -4.789766194521334 5.622769010959828 -10.412535205481161 5.622769010959828
S 413.852378503616 366.38348844419824 413.852378503616 346.80792225789367
s 4.789766194521334 -5.622769010959828 10.412535205481161 -5.622769010959828
S 434.67744891457835 327.2323560715891 434.67744891457835 346.80792225789367
z" fill="none" stroke="none"></path>
<circle cx="0" cy="0" r="5.597404718493064" fill="#178e80" opacity="0.9">
  <animateMotion begin="-7.182307821864297s" dur="10s" repeatCount="indefinite">
    <mpath xlink:href="#path2"></mpath>
  </animateMotion>
</circle><path id="path3" d="M 621.9188194638505 431.4358730282589
c 0 30.775219903641503 -7.530106997699516 8.83969082338639 -16.369797821085903 8.83969082338639
S 589.1792238216788 462.21109293190045 589.1792238216788 431.4358730282589
s 7.530106997699516 -8.83969082338639 16.369797821085903 -8.83969082338639
S 621.9188194638505 400.6606531246174 621.9188194638505 431.4358730282589
z" fill="none" stroke="none"></path>
<circle cx="0" cy="0" r="6.760078720196692" fill="#178e80" opacity="0.9">
  <animateMotion begin="-0.5433128524505104s" dur="10s" repeatCount="indefinite">
    <mpath xlink:href="#path3"></mpath>
  </animateMotion>
</circle><path id="path4" d="M 326.75654865788556 436.17844786128194
c 0 36.783454295870314 -9.000206902181034 10.565460276473388 -19.565667178654422 10.565460276473388
S 287.62521430057666 472.9619021571523 287.62521430057666 436.17844786128194
s 9.000206902181034 -10.565460276473388 19.565667178654422 -10.565460276473388
S 326.75654865788556 399.3949935654116 326.75654865788556 436.17844786128194
z" fill="none" stroke="none"></path>
<circle cx="0" cy="0" r="6.69389966816669" fill="#178e80" opacity="0.9">
  <animateMotion begin="-7.5597803233096545s" dur="10s" repeatCount="indefinite">
    <mpath xlink:href="#path4"></mpath>
  </animateMotion>
</circle><path id="path5" d="M 1208.1556020493679 235.90537244050896
c 0 37.40272838737609 -9.151731413932447 10.743336877225047 -19.895068291157493 10.743336877225047
S 1168.365465467053 273.308100827885 1168.365465467053 235.90537244050896
s 9.151731413932447 -10.743336877225047 19.895068291157493 -10.743336877225047
S 1208.1556020493679 198.50264405313288 1208.1556020493679 235.90537244050896
z" fill="none" stroke="none"></path>
<circle cx="0" cy="0" r="7.994229329639956" fill="#178e80" opacity="0.9">
  <animateMotion begin="-1.083083884035656s" dur="10s" repeatCount="indefinite">
    <mpath xlink:href="#path5"></mpath>
  </animateMotion>
</circle><path id="path6" d="M 1226.0859376797446 244.05488282891406
c 0 35.991615130146535 -8.806459021206065 10.3380171118506 -19.144476133056664 10.3380171118506
S 1187.796985413631 280.0464979590606 1187.796985413631 244.05488282891406
s 8.806459021206065 -10.3380171118506 19.144476133056664 -10.3380171118506
S 1226.0859376797446 208.06326769876753 1226.0859376797446 244.05488282891406
z" fill="none" stroke="none"></path>
<circle cx="0" cy="0" r="5.227294776922186" fill="#178e80" opacity="0.9">
  <animateMotion begin="-4.397803315014796s" dur="10s" repeatCount="indefinite">
    <mpath xlink:href="#path6"></mpath>
  </animateMotion>
</circle><path id="path7" d="M 194.99640940489428 655.3073574122172
c 0 29.470569228579656 -7.2108839601843835 8.464950735868625 -15.675834696053009 8.464950735868625
S 163.64474001278825 684.7779266407969 163.64474001278825 655.3073574122172
s 7.2108839601843835 -8.464950735868625 15.675834696053009 -8.464950735868625
S 194.99640940489428 625.8367881836376 194.99640940489428 655.3073574122172
z" fill="none" stroke="none"></path>
<circle cx="0" cy="0" r="6.395839917055345" fill="#30b5a4" opacity="0.9">
  <animateMotion begin="-9.766055528276834s" dur="10s" repeatCount="indefinite">
    <mpath xlink:href="#path7"></mpath>
  </animateMotion>
</circle><path id="path8" d="M 1212.8343555913445 532.5402171115566
c 0 24.510685127961448 -5.997295297267161 7.040303175052756 -13.037598472319917 7.040303175052756
S 1186.759158646705 557.050902239518 1186.759158646705 532.5402171115566
s 5.997295297267161 -7.040303175052756 13.037598472319917 -7.040303175052756
S 1212.8343555913445 508.0295319835951 1212.8343555913445 532.5402171115566
z" fill="none" stroke="none"></path>
<circle cx="0" cy="0" r="6.770523456207706" fill="#2dab9a" opacity="0.9">
  <animateMotion begin="-6.637296106510158s" dur="10s" repeatCount="indefinite">
    <mpath xlink:href="#path8"></mpath>
  </animateMotion>
</circle><path id="path9" d="M 602.4455055062763 223.04151144525594
c 0 25.90173622355851 -6.337658863211123 7.439860404639146 -13.77751926785027 7.439860404639146
S 574.8904669705757 248.94324766881445 574.8904669705757 223.04151144525594
s 6.337658863211123 -7.439860404639146 13.77751926785027 -7.439860404639146
S 602.4455055062763 197.13977522169742 602.4455055062763 223.04151144525594
z" fill="none" stroke="none"></path>
<circle cx="0" cy="0" r="6.612686764489666" fill="#1f9a8a" opacity="0.9">
  <animateMotion begin="-4.387764087505836s" dur="10s" repeatCount="indefinite">
    <mpath xlink:href="#path9"></mpath>
  </animateMotion>
</circle><path id="path10" d="M 1051.3441163735285 10.332424150834658
c 0 30.85836458601354 -7.550450909343737 8.86357280662091 -16.414023715964646 8.86357280662091
S 1018.5160689415992 41.1907887368482 1018.5160689415992 10.332424150834658
s 7.550450909343737 -8.86357280662091 16.414023715964646 -8.86357280662091
S 1051.3441163735285 -20.52594043517888 1051.3441163735285 10.332424150834658
z" fill="none" stroke="none"></path>
<circle cx="0" cy="0" r="4.777974881905253" fill="#228d80" opacity="0.9">
  <animateMotion begin="-7.8569138486816525s" dur="10s" repeatCount="indefinite">
    <mpath xlink:href="#path10"></mpath>
  </animateMotion>
</circle><path id="path11" d="M 1310.031952368941 337.17047119802976
c 0 25.515690048829338 -6.243200756628454 7.32897480125949 -13.572175557887945 7.32897480125949
S 1282.887601253165 362.6861612468591 1282.887601253165 337.17047119802976
s 6.243200756628454 -7.32897480125949 13.572175557887945 -7.32897480125949
S 1310.031952368941 311.6547811492004 1310.031952368941 337.17047119802976
z" fill="none" stroke="none"></path>
<circle cx="0" cy="0" r="4.096020161731762" fill="#1f9a8a" opacity="0.9">
  <animateMotion begin="-5.133811170224245s" dur="10s" repeatCount="indefinite">
    <mpath xlink:href="#path11"></mpath>
  </animateMotion>
</circle><path id="path12" d="M 615.5733764971538 483.2082700077128
c 0 31.67929039826097 -7.751315735744705 9.099370646309003 -16.85068638205371 9.099370646309003
S 581.8720037330464 514.8875604059738 581.8720037330464 483.2082700077128
s 7.751315735744705 -9.099370646309003 16.85068638205371 -9.099370646309003
S 615.5733764971538 451.5289796094519 615.5733764971538 483.2082700077128
z" fill="none" stroke="none"></path>
<circle cx="0" cy="0" r="6.559092602586635" fill="#178e80" opacity="0.9">
  <animateMotion begin="-9.422053375364406s" dur="10s" repeatCount="indefinite">
    <mpath xlink:href="#path12"></mpath>
  </animateMotion>
</circle><path id="path13" d="M 957.483551195653 12.93474515993518
c 0 27.95482082914787 -6.8400093518127765 8.029576195606303 -14.86958554741908 8.029576195606303
S 927.7443801008149 40.88956598908305 927.7443801008149 12.93474515993518
s 6.8400093518127765 -8.029576195606303 14.86958554741908 -8.029576195606303
S 957.483551195653 -15.02007566921269 957.483551195653 12.93474515993518
z" fill="none" stroke="none"></path>
<circle cx="0" cy="0" r="7.661709951474934" fill="#30b5a4" opacity="0.9">
  <animateMotion begin="-8.006030916326537s" dur="10s" repeatCount="indefinite">
    <mpath xlink:href="#path13"></mpath>
  </animateMotion>
</circle><path id="path14" d="M 925.890604998404 509.61686017914974
c 0 19.326831562501976 -4.72890559508027 5.5513239594420565 -10.280229554522327 5.5513239594420565
S 905.3301458893594 528.9436917416517 905.3301458893594 509.61686017914974
s 4.72890559508027 -5.5513239594420565 10.280229554522327 -5.5513239594420565
S 925.890604998404 490.29002861664776 925.890604998404 509.61686017914974
z" fill="none" stroke="none"></path>
<circle cx="0" cy="0" r="6.797587429060356" fill="#149786" opacity="0.9">
  <animateMotion begin="-9.60333420609488s" dur="10s" repeatCount="indefinite">
    <mpath xlink:href="#path14"></mpath>
  </animateMotion>
</circle><path id="path15" d="M 1163.6772715340167 222.2734001790916
c 0 33.34634340616648 -8.159211684487543 9.57820502092016 -17.737416705407703 9.57820502092016
S 1128.2024381232013 255.61974358525808 1128.2024381232013 222.2734001790916
s 8.159211684487543 -9.57820502092016 17.737416705407703 -9.57820502092016
S 1163.6772715340167 188.9270567729251 1163.6772715340167 222.2734001790916
z" fill="none" stroke="none"></path>
<circle cx="0" cy="0" r="7.353361945361805" fill="#2d9a8c" opacity="0.9">
  <animateMotion begin="-0.8845085889508897s" dur="10s" repeatCount="indefinite">
    <mpath xlink:href="#path15"></mpath>
  </animateMotion>
</circle><path id="path16" d="M 1200.4737242831625 171.74487469338192
c 0 23.320427340746143 -5.70606200890597 6.698420619150489 -12.40448262805646 6.698420619150489
S 1175.6647590270495 195.06530203412805 1175.6647590270495 171.74487469338192
s 5.70606200890597 -6.698420619150489 12.40448262805646 -6.698420619150489
S 1200.4737242831625 148.42444735263578 1200.4737242831625 171.74487469338192
z" fill="none" stroke="none"></path>
<circle cx="0" cy="0" r="5.997586235866921" fill="#228d80" opacity="0.9">
  <animateMotion begin="-5.538513744709008s" dur="10s" repeatCount="indefinite">
    <mpath xlink:href="#path16"></mpath>
  </animateMotion>
</circle><path id="path17" d="M 623.6748264220673 367.74526138206903
c 0 21.305030425821073 -5.212932976530687 6.11953001592733 -11.332462992458016 6.11953001592733
S 601.0099004371514 389.0502918078901 601.0099004371514 367.74526138206903
s 5.212932976530687 -6.11953001592733 11.332462992458016 -6.11953001592733
S 623.6748264220673 346.44023095624794 623.6748264220673 367.74526138206903
z" fill="none" stroke="none"></path>
<circle cx="0" cy="0" r="4.50794057149214" fill="#228d80" opacity="0.9">
  <animateMotion begin="-6.3206224073437145s" dur="10s" repeatCount="indefinite">
    <mpath xlink:href="#path17"></mpath>
  </animateMotion>
</circle><path id="path18" d="M 1242.9533863758522 147.58175664497324
c 0 34.15105241918691 -8.356108570652117 9.809344843809008 -18.165453414461123 9.809344843809008
S 1206.62247954693 181.73280906416016 1206.62247954693 147.58175664497324
s 8.356108570652117 -9.809344843809008 18.165453414461123 -9.809344843809008
S 1242.9533863758522 113.43070422578633 1242.9533863758522 147.58175664497324
z" fill="none" stroke="none"></path>
<circle cx="0" cy="0" r="5.989150118620091" fill="#178e80" opacity="0.9">
  <animateMotion begin="-1.0226300753497486s" dur="10s" repeatCount="indefinite">
    <mpath xlink:href="#path18"></mpath>
  </animateMotion>
</circle><path id="path19" d="M 867.916860852478 142.4133926185556
c 0 20.75987853399196 -5.0795447476788835 5.962943834231734 -11.042488581910616 5.962943834231734
S 845.8318836886568 163.17327115254756 845.8318836886568 142.4133926185556
s 5.0795447476788835 -5.962943834231734 11.042488581910616 -5.962943834231734
S 867.916860852478 121.65351408456365 867.916860852478 142.4133926185556
z" fill="none" stroke="none"></path>
<circle cx="0" cy="0" r="6.326603543607864" fill="#2d9a8c" opacity="0.9">
  <animateMotion begin="-8.93960647782988s" dur="10s" repeatCount="indefinite">
    <mpath xlink:href="#path19"></mpath>
  </animateMotion>
</circle><path id="path20" d="M 847.6275105663118 238.57576452357262
c 0 36.917379359129605 -9.032975800638095 10.603928113792547 -19.63690391443064 10.603928113792547
S 808.3537027374506 275.4931438827022 808.3537027374506 238.57576452357262
s 9.032975800638095 -10.603928113792547 19.63690391443064 -10.603928113792547
S 847.6275105663118 201.65838516444302 847.6275105663118 238.57576452357262
z" fill="none" stroke="none"></path>
<circle cx="0" cy="0" r="7.659798504155292" fill="#149786" opacity="0.9">
  <animateMotion begin="-2.5190669372022523s" dur="10s" repeatCount="indefinite">
    <mpath xlink:href="#path20"></mpath>
  </animateMotion>
</circle><path id="path21" d="M 452.18626679466166 143.5375284382877
c 0 26.262218284748883 -6.425861920736429 7.543403124342765 -13.969265045079194 7.543403124342765
S 424.2477367045033 169.79974672303658 424.2477367045033 143.5375284382877
s 6.425861920736429 -7.543403124342765 13.969265045079194 -7.543403124342765
S 452.18626679466166 117.27531015353881 452.18626679466166 143.5375284382877
z" fill="none" stroke="none"></path>
<circle cx="0" cy="0" r="6.091812686581751" fill="#2dab9a" opacity="0.9">
  <animateMotion begin="-0.7331078817739045s" dur="10s" repeatCount="indefinite">
    <mpath xlink:href="#path21"></mpath>
  </animateMotion>
</circle><path id="path22" d="M 614.7324840648603 131.23084477156408
c 0 19.65099948211346 -4.808223277538399 5.644436021458121 -10.45265929899652 5.644436021458121
S 593.8271654668672 150.88184425367754 593.8271654668672 131.23084477156408
s 4.808223277538399 -5.644436021458121 10.45265929899652 -5.644436021458121
S 614.7324840648603 111.57984528945062 614.7324840648603 131.23084477156408
z" fill="none" stroke="none"></path>
<circle cx="0" cy="0" r="5.9396127295158365" fill="#178e80" opacity="0.9">
  <animateMotion begin="-2.4375838022830454s" dur="10s" repeatCount="indefinite">
    <mpath xlink:href="#path22"></mpath>
  </animateMotion>
</circle><path id="path23" d="M 1206.1805576010331 30.97018621005509
c 0 29.980249936650395 -7.335593069605946 8.611348386059156 -15.946941455665103 8.611348386059156
S 1174.2866746897027 60.950436146705485 1174.2866746897027 30.97018621005509
s 7.335593069605946 -8.611348386059156 15.946941455665103 -8.611348386059156
S 1206.1805576010331 0.9899362734046946 1206.1805576010331 30.97018621005509
z" fill="none" stroke="none"></path>
<circle cx="0" cy="0" r="6.451997054377341" fill="#2dab9a" opacity="0.9">
  <animateMotion begin="-1.6707527481546536s" dur="10s" repeatCount="indefinite">
    <mpath xlink:href="#path23"></mpath>
  </animateMotion>
</circle><path id="path24" d="M 900.8716451787561 551.6634549748825
c 0 24.268291779823027 -5.937986286552442 6.970679553778955 -12.908665840331397 6.970679553778955
S 875.0543134980933 575.9317467547055 875.0543134980933 551.6634549748825
s 5.937986286552442 -6.970679553778955 12.908665840331397 -6.970679553778955
S 900.8716451787561 527.3951631950595 900.8716451787561 551.6634549748825
z" fill="none" stroke="none"></path>
<circle cx="0" cy="0" r="7.1096830310596895" fill="#1f9a8a" opacity="0.9">
  <animateMotion begin="-3.2038630635151644s" dur="10s" repeatCount="indefinite">
    <mpath xlink:href="#path24"></mpath>
  </animateMotion>
</circle><path id="path25" d="M 601.6735701459068 234.77029748260398
c 0 21.364066727654667 -5.227378029106992 6.136487251560383 -11.363865280667376 6.136487251560383
S 578.945839584572 256.13436421025864 578.945839584572 234.77029748260398
s 5.227378029106992 -6.136487251560383 11.363865280667376 -6.136487251560383
S 601.6735701459068 213.40623075494932 601.6735701459068 234.77029748260398
z" fill="none" stroke="none"></path>
<circle cx="0" cy="0" r="6.3868365477592945" fill="#228d80" opacity="0.9">
  <animateMotion begin="-2.6560931871595606s" dur="10s" repeatCount="indefinite">
    <mpath xlink:href="#path25"></mpath>
  </animateMotion>
</circle><path id="path26" d="M 666.108844470973 482.5674263623444
c 0 25.23812259390175 -6.17528531552915 7.249247979099438 -13.424533294628588 7.249247979099438
S 639.2597778817158 507.8055489562462 639.2597778817158 482.5674263623444
s 6.17528531552915 -7.249247979099438 13.424533294628588 -7.249247979099438
S 666.108844470973 457.3293037684426 666.108844470973 482.5674263623444
z" fill="none" stroke="none"></path>
<circle cx="0" cy="0" r="6.1170992149633845" fill="#149786" opacity="0.9">
  <animateMotion begin="-7.073954896411163s" dur="10s" repeatCount="indefinite">
    <mpath xlink:href="#path26"></mpath>
  </animateMotion>
</circle><path id="path27" d="M 58.58183101364876 138.3481290395561
c 0 34.92720900971678 -8.546019225781766 10.032283438961205 -18.57830266474297 10.032283438961205
S 21.425225684162818 173.2753380492729 21.425225684162818 138.3481290395561
s 8.546019225781766 -10.032283438961205 18.57830266474297 -10.032283438961205
S 58.58183101364876 103.42092002983932 58.58183101364876 138.3481290395561
z" fill="none" stroke="none"></path>
<circle cx="0" cy="0" r="4.0001526031168675" fill="#228d80" opacity="0.9">
  <animateMotion begin="-5.535112318608871s" dur="10s" repeatCount="indefinite">
    <mpath xlink:href="#path27"></mpath>
  </animateMotion>
</circle><path id="path28" d="M 1366.9269086395689 547.4701344880662
c 0 23.80659541282695 -5.825018026542764 6.83806463985455 -12.663082666397314 6.83806463985455
S 1341.6007433067743 571.2767299008931 1341.6007433067743 547.4701344880662
s 5.825018026542764 -6.83806463985455 12.663082666397314 -6.83806463985455
S 1366.9269086395689 523.6635390752392 1366.9269086395689 547.4701344880662
z" fill="none" stroke="none"></path>
<circle cx="0" cy="0" r="6.835801092531935" fill="#1f9a8a" opacity="0.9">
  <animateMotion begin="-2.061584109050354s" dur="10s" repeatCount="indefinite">
    <mpath xlink:href="#path28"></mpath>
  </animateMotion>
</circle><path id="path29" d="M 993.9900670417916 299.45000027117993
c 0 34.906328604934025 -8.540910190568962 10.026285875885305 -18.56719606645427 10.026285875885305
S 956.8556749088831 334.35632887611393 956.8556749088831 299.45000027117993
s 8.540910190568962 -10.026285875885305 18.56719606645427 -10.026285875885305
S 993.9900670417916 264.5436716662459 993.9900670417916 299.45000027117993
z" fill="none" stroke="none"></path>
<circle cx="0" cy="0" r="4.550805700694364" fill="#30b5a4" opacity="0.9">
  <animateMotion begin="-8.201997374435342s" dur="10s" repeatCount="indefinite">
    <mpath xlink:href="#path29"></mpath>
  </animateMotion>
</circle></g>
</svg>